<?xml version="1.0" encoding="UTF-8"?>
<svg version="1.1" xmlns="http://www.w3.org/2000/svg" width="512" height="512">
<path d="M0 0 C1.01790619 0.00215515 2.03581238 0.0043103 3.08456421 0.00653076 C17.69363523 0.05620146 32.02575853 0.30709809 46.375 3.3125 C47.34985352 3.51117676 48.32470703 3.70985352 49.32910156 3.91455078 C88.38660539 12.08468046 124.82400319 27.71035417 156.375 52.3125 C157.25929688 52.98539063 158.14359375 53.65828125 159.0546875 54.3515625 C174.64487101 66.4551235 189.25704477 80.75418497 201.375 96.3125 C202.52162109 97.71628906 202.52162109 97.71628906 203.69140625 99.1484375 C238.32002637 142.39252491 256.81365997 197.89189907 256.69067383 253.03979492 C256.6875221 255.97938487 256.71104926 258.9179558 256.73632812 261.85742188 C256.78098737 275.23056192 255.57551542 288.12666711 253.375 301.3125 C253.09281616 303.01805054 253.09281616 303.01805054 252.80493164 304.75805664 C245.77946967 343.86954746 228.79665906 381.05202178 204.375 412.3125 C203.61574219 413.28445313 202.85648437 414.25640625 202.07421875 415.2578125 C189.73986402 430.63741644 175.93895499 445.19015196 160.375 457.3125 C159.43914062 458.07691406 158.50328125 458.84132813 157.5390625 459.62890625 C123.77647747 486.66501226 82.00014282 503.86624184 39.375 510.3125 C38.25254883 510.48910156 37.13009766 510.66570312 35.97363281 510.84765625 C24.36052257 512.5045586 12.84320055 512.71123513 1.125 512.6875 C-0.39302216 512.68668427 -0.39302216 512.68668427 -1.94171143 512.68585205 C-18.47387291 512.64511077 -34.398992 511.72932284 -50.625 508.3125 C-52.171875 507.99104004 -52.171875 507.99104004 -53.75 507.66308594 C-90.74121413 499.72153465 -125.80862931 483.60597728 -155.625 460.3125 C-156.59695312 459.55324219 -157.56890625 458.79398437 -158.5703125 458.01171875 C-173.94991644 445.67736402 -188.50265196 431.87645499 -200.625 416.3125 C-201.77162109 414.90871094 -201.77162109 414.90871094 -202.94140625 413.4765625 C-226.9299066 383.51981568 -242.90415871 347.23166927 -251 309.875 C-251.2386377 308.77551025 -251.47727539 307.67602051 -251.72314453 306.54321289 C-255.14135951 289.89331758 -256.00205986 273.64205979 -255.9375 256.6875 C-255.93534485 255.66959381 -255.9331897 254.65168762 -255.93096924 253.60293579 C-255.88129854 238.99386477 -255.63040191 224.66174147 -252.625 210.3125 C-252.42632324 209.33764648 -252.22764648 208.36279297 -252.02294922 207.35839844 C-243.85281954 168.30089461 -228.22714583 131.86349681 -203.625 100.3125 C-202.95210937 99.42820312 -202.27921875 98.54390625 -201.5859375 97.6328125 C-189.4823765 82.04262899 -175.18331503 67.43045523 -159.625 55.3125 C-158.68914062 54.54808594 -157.75328125 53.78367188 -156.7890625 52.99609375 C-112.48174637 17.51607068 -56.33754016 -0.21452306 0 0 Z M-154.0078125 87.8828125 C-156.10561379 89.83032355 -158.22809773 91.68338035 -160.4375 93.5 C-164.2623149 96.74696517 -167.39677277 100.4852853 -170.625 104.3125 C-171.45 105.24964844 -172.275 106.18679687 -173.125 107.15234375 C-212.18115549 151.77687369 -231.82259879 211.34332895 -228.34765625 270.40625 C-224.7103014 322.47184246 -204.19258459 372.66367037 -168.09765625 410.6640625 C-166.33052217 412.55682222 -164.67636778 414.43740691 -163.04296875 416.4375 C-161.07456574 418.7779598 -159.20177773 420.72863157 -156.875 422.6875 C-154.80801319 424.44234516 -152.75652754 426.18931459 -150.77734375 428.04296875 C-108.75888651 467.22121218 -49.11472302 487.20728914 7.87011719 485.41748047 C56.5492247 483.37732294 103.18916362 466.67382156 141.375 436.3125 C142.34050781 435.55066406 143.30601562 434.78882813 144.30078125 434.00390625 C149.65019808 429.71134308 154.63158781 425.26017396 159.375 420.3125 C161.7491233 417.91532696 164.13122381 415.54082559 166.59375 413.234375 C207.18510299 374.58918277 227.65368997 315.70873767 229.5625 260.69921875 C230.81161771 202.21073832 208.76239272 144.51076892 168.8046875 101.9296875 C166.85717645 99.83188621 165.00411965 97.70940227 163.1875 95.5 C159.94062598 91.67529247 156.20263813 88.54009585 152.375 85.3125 C151.44945312 84.49910156 150.52390625 83.68570313 149.5703125 82.84765625 C78.50407048 20.71292692 -27.01797272 9.97101659 -154.0078125 87.8828125 Z " fill="#FF4F32" transform="translate(255.625,-0.3125)"/>
<path d="M0 0 C0.91471573 -0.00145523 1.82943146 -0.00291046 2.77186584 -0.00440979 C4.70430692 -0.00275156 6.6367613 0.0088013 8.5690918 0.02954102 C11.52124398 0.05845748 14.47159567 0.05015601 17.42382812 0.03710938 C19.30339412 0.04334826 21.18295445 0.05174037 23.0625 0.0625 C24.38301613 0.05809654 24.38301613 0.05809654 25.73020935 0.05360413 C31.78731121 0.14643991 35.17246233 1.05319437 39.55395508 5.4666748 C42.38222225 9.65907156 43.29182479 13.86960635 44.45092773 18.75219727 C44.83477631 20.29981247 44.83477631 20.29981247 45.22637939 21.87869263 C46.06952765 25.29122151 46.89414006 28.70794849 47.71875 32.125 C48.3052537 34.51403026 48.89292383 36.90277444 49.48170471 39.29124451 C51.0316439 45.5920285 52.56599206 51.89650858 54.0970459 58.2019043 C55.64091316 64.54893649 57.19880864 70.8925197 58.75585938 77.23632812 C60.51399362 84.40304073 62.27067803 91.5700859 64.01719666 98.73963928 C64.28409837 99.83507522 64.55100008 100.93051115 64.82598972 102.05914211 C65.34473528 104.1893047 65.86298098 106.31958908 66.38068295 108.45000553 C67.59538492 113.437625 68.82684016 118.41988899 70.09768677 123.39352417 C70.33263635 124.31638434 70.56758593 125.23924452 70.80965519 126.19007015 C71.24836535 127.90733938 71.69102656 129.62360624 72.1384573 131.338624 C73.03866008 134.86458899 73.59765625 137.83283529 73.59765625 141.49609375 C74.25765625 141.49609375 74.91765625 141.49609375 75.59765625 141.49609375 C75.814823 140.63781982 75.814823 140.63781982 76.03637695 139.76220703 C78.55314751 130.1706059 81.69389236 120.78860615 84.78515625 111.37109375 C85.40163116 109.48608891 86.01783589 107.6009957 86.63378906 105.71582031 C87.94048287 101.71796099 89.24867936 97.72059805 90.55810547 93.72363281 C92.96293929 86.38240904 95.36291933 79.03960195 97.76071167 71.69607544 C99.46763724 66.46841718 101.1765739 61.24144 102.890625 56.01611328 C105.870523 46.92260056 108.82712168 37.82526359 111.65625 28.68359375 C112.11206787 27.22290785 112.56811346 25.76229299 113.02441406 24.30175781 C113.83915072 21.69352138 114.63352591 19.08195598 115.41699219 16.46386719 C117.56793319 9.57022919 119.13628597 5.40698054 125.27661133 1.40063477 C128.5582854 0.12172423 131.74301496 0.19081936 135.21484375 0.1953125 C136.31700729 0.18888481 136.31700729 0.18888481 137.44143677 0.18232727 C138.99301119 0.17659564 140.54461248 0.17607511 142.09619141 0.18041992 C144.45782881 0.18357395 146.81820537 0.16012878 149.1796875 0.13476562 C150.69140468 0.13249175 152.20312521 0.13178955 153.71484375 0.1328125 C154.41503632 0.12360275 155.11522888 0.11439301 155.8366394 0.10490417 C160.50762539 0.14850192 163.71145423 0.88544963 167.59765625 3.49609375 C172.16979686 8.70908056 173.65137562 15.22679634 175.625 21.76171875 C176.21095015 23.65666584 176.79690496 25.5516115 177.3830328 27.44650364 C178.00882196 29.47597408 178.62986819 31.50684135 179.24957275 33.53817749 C180.54544496 37.78485519 181.85481968 42.0272844 183.16748047 46.26879883 C183.38989662 46.98754716 183.61231277 47.70629549 183.84146881 48.44682407 C184.29668134 49.91773714 184.75194297 51.38863501 185.2072525 52.85951805 C185.9044842 55.11329574 186.60050996 57.36744311 187.29632568 59.62165833 C192.28504448 75.77309952 197.3957234 91.88539055 202.52534866 107.99253845 C203.45034955 110.89904359 204.3731193 113.80625517 205.29596043 116.71344662 C206.16258117 119.44212932 207.03092471 122.17026117 207.89985085 124.89821053 C208.49432176 126.76566215 209.08723419 128.63360967 209.68009949 130.50157166 C210.03655045 131.61826736 210.3930014 132.73496307 210.76025391 133.88549805 C211.06855133 134.85384079 211.37684875 135.82218353 211.69448853 136.81987 C212.57255232 139.42170697 213.55216789 141.95745482 214.59765625 144.49609375 C214.80015991 143.70669403 215.00266357 142.91729431 215.21130371 142.10397339 C216.01724067 138.96240731 216.82322929 135.82085449 217.6292572 132.67931175 C218.00586637 131.21144096 218.38246334 129.74356704 218.75904846 128.27569008 C221.0651142 119.28717134 223.37276278 110.2990625 225.68359375 101.31176758 C226.56125209 97.89796314 227.43884173 94.48414105 228.31640625 91.0703125 C228.5368158 90.21298586 228.75722534 89.35565922 228.98431396 88.47235298 C231.73041713 77.78916769 234.46493836 67.10314225 237.18225098 56.41259766 C238.46433907 51.36909818 239.75169906 46.32694966 241.0406723 41.28520584 C241.90357798 37.90855976 242.76345566 34.53120192 243.61645508 31.15203857 C244.55998112 27.41426503 245.51582197 23.67970268 246.47265625 19.9453125 C246.8839679 18.30197685 246.8839679 18.30197685 247.30358887 16.6254425 C247.56305298 15.62071396 247.82251709 14.61598541 248.08984375 13.58081055 C248.3101123 12.71368942 248.53038086 11.8465683 248.75732422 10.95317078 C250.14755845 6.88821494 251.65831579 4.13210733 255.23779297 1.70849609 C259.41569333 0.20090612 262.95090039 0.06369915 267.35546875 0.09765625 C268.18094208 0.09478607 269.00641541 0.09191589 269.85690308 0.08895874 C271.5932484 0.08692591 273.32961703 0.09240092 275.06591797 0.10498047 C277.72154811 0.12108703 280.37566595 0.10508481 283.03125 0.0859375 C284.7226596 0.08791927 286.41406826 0.09176157 288.10546875 0.09765625 C288.8972049 0.09158356 289.68894104 0.08551086 290.50466919 0.07925415 C293.62015209 0.11900682 296.22797985 0.34638301 299.12841797 1.52099609 C301.40205895 4.57745265 300.8973874 7.8504655 300.59765625 11.49609375 C300.06842159 14.29491815 299.28415108 16.98450894 298.45239258 19.70703125 C298.22234496 20.49136189 297.99229734 21.27569254 297.75527859 22.08379078 C296.99026629 24.68269217 296.20999902 27.27674884 295.4296875 29.87109375 C294.88067379 31.72551508 294.33266227 33.58023336 293.7855835 35.43522644 C292.61579502 39.39434933 291.43938154 43.35141723 290.25759888 47.30697632 C288.39609313 53.53787511 286.54911287 59.77301697 284.70483398 66.0090332 C282.82665832 72.35739073 280.94765987 78.70549625 279.06349182 85.05207825 C273.80932932 102.75127282 268.62243787 120.46948415 263.46588135 138.19732666 C262.17258346 142.64261884 260.87547666 147.08679385 259.57763672 151.53076172 C256.25428844 162.91336423 252.93253242 174.29615414 249.6743927 185.69764709 C248.55102915 189.6276902 247.42105875 193.55581775 246.29049683 197.48379517 C245.56750411 200.00815004 244.85578058 202.53548075 244.14477539 205.06323242 C243.72211745 206.53321316 243.29890182 208.00303373 242.875 209.47265625 C242.52687256 210.70064941 242.17874512 211.92864258 241.82006836 213.19384766 C240.12042461 217.7852959 238.14509148 221.24125542 234.31616211 224.34619141 C230.78295806 225.8407034 227.93509702 225.88469026 224.1015625 225.89453125 C223.03481544 225.89883652 223.03481544 225.89883652 221.94651794 225.90322876 C220.44797974 225.90526282 218.94941458 225.89977904 217.45092773 225.88720703 C215.17044999 225.87116616 212.89175062 225.88706405 210.61132812 225.90625 C209.14973571 225.90426698 207.68814439 225.9004221 206.2265625 225.89453125 C204.9072876 225.89114746 203.5880127 225.88776367 202.22875977 225.88427734 C198.16322392 225.44965071 195.93319248 224.87169795 192.59765625 222.49609375 C188.51284043 216.78522016 186.77350718 209.42166549 184.68359375 202.8125 C184.31624619 201.66856277 183.94889862 200.52462555 183.57041931 199.34602356 C182.57256504 196.23366453 181.58058375 193.1195114 180.59140396 190.0043869 C179.75928821 187.38760935 178.92225894 184.77241509 178.08514118 182.15723419 C175.24188246 173.27465839 172.41655668 164.38642606 169.59765625 155.49609375 C169.38698265 154.83166512 169.17630905 154.16723648 168.9592514 153.48267365 C164.85381424 140.53230863 160.76112618 127.57794146 156.68292236 114.61897278 C152.36439598 100.89741512 147.9952757 87.19250142 143.59765625 73.49609375 C141.00636678 80.20120103 138.76392993 86.99400835 136.5625 93.8359375 C136.17140549 95.04691605 135.78031097 96.25789459 135.37736511 97.50556946 C134.31485279 100.79656576 133.25503013 104.08842231 132.19589996 107.38050842 C131.53279817 109.44092085 130.86890386 111.50107631 130.20477295 113.56115723 C122.88309721 136.27525109 115.65851907 159.01917411 108.51147461 181.78881836 C106.85128982 187.07618414 105.18154982 192.36042069 103.50256348 197.6418457 C102.90873251 199.51490057 102.31836393 201.38905739 101.73181152 203.2644043 C100.9447971 205.77734377 100.14430496 208.2855698 99.33984375 210.79296875 C99.1182962 211.51107727 98.89674866 212.22918579 98.66848755 212.96905518 C97.05461503 217.92548089 95.08752783 221.70564328 90.79858398 224.78979492 C85.75841734 226.40723276 80.15591937 225.82740206 74.89868164 225.81176758 C72.6708884 225.80860897 70.44442597 225.83207715 68.21679688 225.85742188 C66.79297042 225.85969529 65.36914041 225.86039817 63.9453125 225.859375 C62.65633057 225.86235596 61.36734863 225.86533691 60.03930664 225.8684082 C55.05242183 225.32893177 51.84583687 223.23245103 48.59765625 219.49609375 C47.71504211 217.40255737 47.71504211 217.40255737 46.9855957 214.93310547 C46.70193649 213.99023178 46.41827728 213.04735809 46.12602234 212.07591248 C45.82404434 211.03636917 45.52206635 209.99682587 45.2109375 208.92578125 C44.88136551 207.82005264 44.55179352 206.71432404 44.2122345 205.5750885 C43.29639381 202.49546336 42.38930176 199.41341319 41.48569489 196.33018112 C40.50850166 193.00389373 39.5199772 189.68097577 38.53271484 186.35766602 C36.80398785 180.53303297 35.08219649 174.70638545 33.36474609 168.87841797 C30.5115078 159.19706915 27.64344027 149.52014017 24.7734375 139.84375 C23.77033468 136.46161575 22.76730796 133.07945894 21.7644043 129.69726562 C21.51408353 128.85308893 21.26376276 128.00891224 21.00585651 127.13915443 C19.22700115 121.13864169 17.45221818 115.13693306 15.67895508 109.13476562 C10.94269515 93.10822989 6.18711459 77.08831586 1.35012436 61.09185219 C0.62997992 58.70908944 -0.08892969 56.32595808 -0.80734253 53.94267273 C-1.03907984 53.1739512 -1.27081715 52.40522966 -1.5095768 51.61321354 C-1.96937385 50.08786563 -2.42912054 48.56250254 -2.88881493 47.03712368 C-4.21017317 42.65557992 -5.54013264 38.27676568 -6.87662315 33.89981556 C-7.49611636 31.86578737 -8.11125051 29.83050247 -8.72445679 27.79457092 C-9.46401158 25.33960055 -10.21058565 22.88672852 -10.96572876 20.43650818 C-14.21018676 9.59204122 -14.21018676 9.59204122 -13.40234375 4.49609375 C-10.31175324 -0.76993057 -5.47872538 -0.06975305 0 0 Z " fill="#FF4F32" transform="translate(112.40234375,140.50390625)"/>
</svg>
